<svg width="41" height="51" viewBox="0 0 41 51" fill="none" xmlns="http://www.w3.org/2000/svg">
<g filter="url(#filter0_d_67_3321)">
<path d="M4.4364 2.21398L14.0159 0.372803L24.5827 1.52021L24.6093 14.6753L36.5637 17.3437L35.9499 30.0185L28.9054 36.7161L24.636 35.0848V37.1697L17.0845 43.814L7.47835 39.1443L5.56175 15.8761L4.4364 2.21398Z" fill="url(#paint0_linear_67_3321)" shape-rendering="crispEdges"/>
<path d="M4.4364 2.21398L14.0159 0.372803L24.5827 1.52021M4.4364 2.21398L15.6703 3.7092M4.4364 2.21398L5.56175 15.8761M24.5827 1.52021L15.6703 3.7092M24.5827 1.52021L24.6093 14.6753M15.6703 3.7092L16.2039 18.7322M16.2039 18.7322L24.6093 14.6753M16.2039 18.7322L29.1456 22.2535M16.2039 18.7322L16.6843 32.0465M16.2039 18.7322L5.56175 15.8761M24.6093 14.6753L36.5637 17.3437M29.1456 22.2535L36.5637 17.3437M29.1456 22.2535L28.9054 36.7161M36.5637 17.3437L35.9499 30.0185L28.9054 36.7161M28.9054 36.7161L24.636 35.0848M16.6843 32.0465L17.0845 43.814M16.6843 32.0465L24.636 35.0848M16.6843 32.0465L6.5711 28.0706M17.0845 43.814L24.636 37.1697V35.0848M17.0845 43.814L7.47835 39.1443L5.56175 15.8761" stroke="url(#paint1_linear_67_3321)" stroke-width="0.543015" shape-rendering="crispEdges"/>
</g>
<defs>
<filter id="filter0_d_67_3321" x="0.763934" y="0.0985107" width="39.4638" height="50.8023" filterUnits="userSpaceOnUse" color-interpolation-filters="sRGB">
<feFlood flood-opacity="0" result="BackgroundImageFix"/>
<feColorMatrix in="SourceAlpha" type="matrix" values="0 0 0 0 0 0 0 0 0 0 0 0 0 0 0 0 0 0 127 0" result="hardAlpha"/>
<feOffset dy="3.38182"/>
<feGaussianBlur stdDeviation="1.69091"/>
<feComposite in2="hardAlpha" operator="out"/>
<feColorMatrix type="matrix" values="0 0 0 0 0 0 0 0 0 0 0 0 0 0 0 0 0 0 0.25 0"/>
<feBlend mode="normal" in2="BackgroundImageFix" result="effect1_dropShadow_67_3321"/>
<feBlend mode="normal" in="SourceGraphic" in2="effect1_dropShadow_67_3321" result="shape"/>
</filter>
<linearGradient id="paint0_linear_67_3321" x1="20.5" y1="0.372803" x2="20.5" y2="43.814" gradientUnits="userSpaceOnUse">
<stop stop-color="#737373"/>
<stop offset="1" stop-color="#242424"/>
</linearGradient>
<linearGradient id="paint1_linear_67_3321" x1="18.8091" y1="0.79553" x2="20.5" y2="43.814" gradientUnits="userSpaceOnUse">
<stop stop-color="white" stop-opacity="0.55"/>
<stop offset="1" stop-color="white" stop-opacity="0.27"/>
</linearGradient>
</defs>
</svg>
